<svg width="50" height="35" viewBox="0 0 50 35" fill="none" xmlns="http://www.w3.org/2000/svg"><path d="M49.497 17.713 42.875 9.85c-.165-.166-.414-.331-.662-.331h-9.105v13.243H0v5.794c0 .496.331.828.828.828h4.8c-.082.248-.082.579-.082.827a4.098 4.098 0 0 0 4.138 4.139 4.098 4.098 0 0 0 4.139-4.139c0-.248 0-.58-.083-.827h22.762c-.083.248-.083.579-.083.827a4.098 4.098 0 0 0 4.139 4.139 4.098 4.098 0 0 0 4.138-4.139c0-.248 0-.58-.082-.827h4.22c.497 0 .828-.332.828-.828V18.209c0-.165-.082-.33-.165-.496Zm-2.4-.331h-5.712v-2.897h3.229l2.483 2.897ZM9.684 32.694c-1.407 0-2.483-1.076-2.483-2.483 0-.414.083-.827.331-1.241.414-.745 1.242-1.242 2.152-1.242.248 0 .414 0 .662.083a1.84 1.84 0 0 1 1.076.662c.166.166.249.331.414.497.248.414.331.827.331 1.241 0 1.407-1.159 2.483-2.483 2.483Zm30.874 0c-1.407 0-2.483-1.076-2.483-2.483 0-.414.082-.827.33-1.241.414-.745 1.242-1.242 2.153-1.242.248 0 .413 0 .662.083a1.84 1.84 0 0 1 1.076.662c.165.166.248.331.414.497.248.414.33.827.33 1.241 0 1.407-1.075 2.483-2.482 2.483Zm7.45-4.966h-4.14c0-.083-.082-.083-.082-.165l-.249-.249-.165-.165c-.083-.083-.166-.166-.248-.166-.083-.083-.083-.083-.166-.083-.083-.082-.166-.082-.248-.165-.083 0-.083-.083-.166-.083-.083-.083-.165-.083-.248-.165-.083 0-.166-.083-.166-.083-.082 0-.165-.083-.33-.083-.083 0-.166 0-.166-.083-.083 0-.249-.082-.331-.082h-1.325c-.083 0-.248 0-.33.082-.084 0-.166 0-.166.083-.083 0-.166.083-.331.083-.083 0-.166.083-.166.083-.083.082-.166.082-.248.165-.083 0-.083.083-.166.083-.083.083-.165.083-.248.165-.083 0-.083.083-.166.083-.082.083-.165.166-.248.166l-.166.165-.248.249c0 .082-.083.082-.083.165H12.995c0-.083-.083-.083-.083-.165l-.248-.249-.166-.165c-.082-.083-.165-.166-.248-.166-.083-.083-.083-.083-.165-.083-.083-.082-.166-.082-.249-.165-.082 0-.082-.083-.165-.083-.083-.083-.166-.083-.249-.165-.082 0-.165-.083-.165-.083-.083 0-.166-.083-.331-.083-.083 0-.166 0-.166-.083-.083 0-.248-.082-.33-.082H9.104c-.083 0-.249 0-.331.082-.083 0-.166 0-.166.083-.083 0-.165.083-.248.083-.083 0-.166.083-.248.083-.083 0-.166.082-.249.082-.083 0-.165.083-.248.083-.083.083-.166.083-.248.166-.083.082-.166.082-.166.165l-.165.166c-.083.082-.166.082-.166.165-.248.083-.248.166-.331.249-.083.082-.083.165-.166.165H1.655v-3.31h32.281c.497 0 .828-.332.828-.828V11.174h7.035l1.407 1.655h-2.648c-.497 0-.828.332-.828.828v4.552c0 .497.331.828.828.828h7.45v8.691Z" fill="#4E9DD3"/><path d="M28.308 6.704C27.563 2.814 24.169 0 20.113 0h-6.456C9.684 0 6.29 2.814 5.463 6.704c-.993.332-1.738 1.242-1.738 2.318 0 .662.248 1.242.662 1.655a2.311 2.311 0 0 0-.662 1.656c0 1.076.745 2.07 1.738 2.317.745 3.89 4.138 6.705 8.194 6.705h6.456c3.973 0 7.367-2.814 8.195-6.705.993-.33 1.738-1.241 1.738-2.317 0-.662-.249-1.242-.662-1.656.413-.413.662-.993.662-1.655.082-1.076-.662-1.986-1.738-2.318Zm-14.65-5.049h6.455c3.063 0 5.629 2.07 6.456 4.967h-.33l-.166-.166c-.331-.497-.91-.662-1.49-.662h-.497c-.58 0-1.159.248-1.572.662a.632.632 0 0 1-.414.166h-.497a.633.633 0 0 1-.414-.166c-.414-.497-.993-.662-1.572-.662h-.497a2.26 2.26 0 0 0-1.573.662.632.632 0 0 1-.413.166h-.497a.632.632 0 0 1-.414-.166c-.331-.497-.91-.662-1.49-.662h-.497a2.26 2.26 0 0 0-1.572.662.633.633 0 0 1-.414.166h-.497a.632.632 0 0 1-.414-.166c-.413-.497-.993-.662-1.572-.662H9.27c-.58 0-1.159.248-1.572.662l-.166.083h-.248c.745-2.814 3.393-4.884 6.373-4.884Zm-7.45 6.54h1.986l.662-.663c.166-.083.249-.165.414-.165h.497c.165 0 .331.082.414.165a2.26 2.26 0 0 0 1.572.662h.497a2.26 2.26 0 0 0 1.573-.662.633.633 0 0 1 .413-.165h.497a.63.63 0 0 1 .414.165 2.26 2.26 0 0 0 1.573.662h.496a2.26 2.26 0 0 0 1.573-.662c.083-.083.248-.165.331-.165h.497a.63.63 0 0 1 .413.165c.414.414.994.662 1.573.662h.497c.58 0 1.159-.248 1.572-.662a.632.632 0 0 1 .414-.165h.497c.165 0 .33.082.414.165l.662.662h1.986a.83.83 0 0 1 .828.828c0 .497-.331.828-.828.828H6.208a.83.83 0 0 1-.828-.828.83.83 0 0 1 .828-.828ZM20.196 19.7H13.74c-3.063 0-5.629-2.07-6.456-4.967h19.368c-.828 2.98-3.393 4.966-6.456 4.966Zm7.45-6.54H6.207a.83.83 0 0 1-.828-.827c0-.497.331-.828.828-.828h21.355a.83.83 0 0 1 .827.828c0 .496-.33.828-.745.828Z" fill="#4E9DD3"/></svg>