<svg width="38" height="34" viewBox="0 0 38 34" fill="none" xmlns="http://www.w3.org/2000/svg"><path d="M32.59 4.64A5.661 5.661 0 0 0 27.003 0h-4.4c-2.708 0-5.021 1.947-5.585 4.64-.677.229-1.185.859-1.185 1.603 0 .459.17.86.451 1.146a1.612 1.612 0 0 0-.451 1.145c0 .745.508 1.432 1.185 1.604a5.661 5.661 0 0 0 5.585 4.64h4.4c2.708 0 5.021-1.948 5.585-4.64.677-.229 1.185-.859 1.185-1.604 0-.458-.17-.859-.451-1.145.282-.287.451-.687.451-1.146.057-.744-.451-1.374-1.185-1.603Zm-9.986-3.494h4.4c2.088 0 3.836 1.432 4.4 3.436h-.225l-.113-.114c-.226-.344-.62-.459-1.015-.459h-.339c-.395 0-.79.172-1.072.459a.427.427 0 0 1-.282.114h-.338a.427.427 0 0 1-.282-.114c-.282-.344-.677-.459-1.072-.459h-.339c-.395 0-.79.172-1.072.459a.428.428 0 0 1-.282.114h-.338a.428.428 0 0 1-.282-.114c-.226-.344-.62-.459-1.016-.459H23c-.395 0-.79.172-1.072.459a.428.428 0 0 1-.282.114h-.339a.428.428 0 0 1-.282-.114c-.282-.344-.677-.459-1.072-.459h-.338c-.395 0-.79.172-1.072.459l-.113.057h-.17c.509-1.947 2.314-3.38 4.345-3.38ZM17.526 5.67h1.354l.452-.459c.113-.057.169-.114.282-.114h.338c.113 0 .226.057.282.114a1.53 1.53 0 0 0 1.072.459h.339c.395 0 .79-.172 1.072-.459a.427.427 0 0 1 .282-.114h.338c.113 0 .226.057.282.114a1.53 1.53 0 0 0 1.072.459h.339c.395 0 .79-.172 1.072-.459a.425.425 0 0 1 .225-.114h.339a.43.43 0 0 1 .282.114 1.53 1.53 0 0 0 1.072.459h.338c.395 0 .79-.172 1.072-.459a.427.427 0 0 1 .282-.114h.339a.43.43 0 0 1 .282.114l.451.459h1.354a.57.57 0 0 1 .564.572c0 .344-.225.573-.564.573H17.527a.57.57 0 0 1-.565-.573.57.57 0 0 1 .564-.572Zm9.535 7.961h-4.4c-2.088 0-3.837-1.432-4.401-3.437h13.2c-.564 2.063-2.313 3.437-4.4 3.437Zm5.077-4.525H17.527a.57.57 0 0 1-.565-.573c0-.343.226-.572.564-.572h14.556a.57.57 0 0 1 .564.572c0 .344-.226.573-.508.573Z" fill="#E7426A"/><path d="M1.088 22.381h.002l2.3-2.04a1.205 1.205 0 0 1 1.694.102c1.855 2.092 3.711 4.189 5.567 6.285l1.877 2.12-11.44-6.467Zm0 0a1.201 1.201 0 0 0-.142 1.643l.008.01m.134-1.653-.134 1.653m0 0 .008.01m-.008-.01.008.01m0 0 7.468 8.434M.963 24.044l7.469 8.434m0 0a1.206 1.206 0 0 0 1.693.102m-1.693-.102 1.693.102m0 0 2.302-2.04m-2.302 2.04 2.303-2.04m0 0c.492-.436.538-1.2.101-1.692l-.101 1.693ZM.96 22.242l.003-.002 2.303-2.038a1.39 1.39 0 0 1 1.957.118l.038.043.408.462.368-.495c.74-.998 1.588-1.934 2.552-2.676 2.252-1.735 5.244-2.534 7.665-1.056 1.524.932 3.238 1.708 5.047 2.033l.044.008h5.209c.882 0 1.511.5 1.714 1.318l.196.791.616-.533 5.496-4.753c.776-.672 1.774-.56 2.446.214.676.786.64 1.824-.146 2.505l-9.152 7.935c-1.377 1.194-2.916 1.81-4.735 1.897l-9.623.456-.69.033.247.645a1.387 1.387 0 0 1-.374 1.535l-2.303 2.04a1.39 1.39 0 0 1-1.957-.12L.846 24.195c-.503-.567-.451-1.46.115-1.954Zm27.25-1.027-.07.06-.044.082c-.268.497-.764.87-1.541.87H15.324a.096.096 0 0 1-.096-.095c0-.053.044-.096.096-.096h11.232c.454 0 .86-.16 1.152-.466.29-.303.43-.709.43-1.137 0-.42-.135-.825-.421-1.13-.29-.309-.698-.473-1.161-.473H21.37l-.056-.006c-1.822-.32-3.553-1.085-5.157-2.065-2.493-1.524-5.463-.49-7.452 1.042-1.046.806-1.92 1.807-2.67 2.849l-.233.324.265.3 6.094 6.878.158.18.24-.012 10.421-.494c1.773-.082 3.284-.69 4.623-1.851l9.153-7.936c.348-.302.538-.697.549-1.118a1.666 1.666 0 0 0-.423-1.123h-.001c-.266-.31-.622-.526-1.025-.574-.41-.048-.817.085-1.157.378l-6.49 5.613Z" fill="#EE3686" stroke="#E7426A"/></svg>