<svg width="30" height="30" viewBox="0 0 30 30" fill="none" xmlns="http://www.w3.org/2000/svg"><path d="M11.25 0c1.677 0 3.147.941 3.9 2.322a4.082 4.082 0 0 1 3.26-1.64c2.25 0 4.09 1.84 4.09 4.09A4.092 4.092 0 0 1 21.445 7.5h7.873a.682.682 0 0 1 .682.682v6.136a.682.682 0 0 1-.682.682h-1.704v14.318a.682.682 0 0 1-.682.682H3.068a.682.682 0 0 1-.682-.682V15H.682A.682.682 0 0 1 0 14.318V8.182A.682.682 0 0 1 .682 7.5h7.372a4.423 4.423 0 0 1-1.236-3.068A4.442 4.442 0 0 1 11.25 0Zm0 1.364a3.058 3.058 0 0 0-3.068 3.068A3.058 3.058 0 0 0 11.25 7.5h3.068V4.432a3.058 3.058 0 0 0-3.068-3.068Zm7.16.681a2.717 2.717 0 0 0-2.728 2.728V7.5h2.727a2.717 2.717 0 0 0 2.727-2.727 2.717 2.717 0 0 0-2.727-2.728Zm10.226 6.819h-7.159v4.772h7.159V8.864Zm-8.522 0H9.886v4.772h10.228V8.864Zm-11.591 0h-7.16v4.772h7.16V8.864ZM26.25 15h-7.84v13.636h7.84V15Zm-9.204 0h-4.091v13.636h4.09V15Zm-5.455 0H3.75v13.636h7.84V15Z" fill="#E7426A"/></svg>