<svg width="40" height="28" viewBox="0 0 40 28" fill="none" xmlns="http://www.w3.org/2000/svg"><path d="m39.867 14.267-5.334-6.334C34.4 7.8 34.2 7.667 34 7.667h-7.333v10.666H0V23c0 .4.267.666.667.666h3.866c-.066.2-.066.467-.066.667A3.301 3.301 0 0 0 7.8 27.667a3.3 3.3 0 0 0 3.333-3.334c0-.2 0-.466-.066-.666H29.4c-.067.2-.067.466-.067.666a3.301 3.301 0 0 0 3.334 3.334A3.301 3.301 0 0 0 36 24.332c0-.2 0-.466-.067-.666h3.4c.4 0 .667-.267.667-.667v-8.334c0-.133-.067-.266-.133-.4ZM37.933 14h-4.6v-2.334h2.6l2 2.334ZM7.8 26.333c-1.133 0-2-.866-2-2 0-.333.067-.666.267-1 .333-.6 1-1 1.733-1 .2 0 .333 0 .533.067.334.067.667.267.867.533.133.134.2.267.333.4.2.334.267.667.267 1 0 1.134-.933 2-2 2Zm24.867 0c-1.134 0-2-.866-2-2 0-.333.066-.666.266-1 .334-.6 1-1 1.734-1 .2 0 .333 0 .533.067.333.067.667.267.867.533.133.134.2.267.333.4.2.334.267.667.267 1 0 1.134-.867 2-2 2Zm6-4h-3.334c0-.066-.066-.066-.066-.133l-.2-.2-.134-.134c-.066-.066-.133-.133-.2-.133-.066-.067-.066-.067-.133-.067-.067-.066-.133-.066-.2-.133-.067 0-.067-.067-.133-.067-.067-.066-.134-.066-.2-.133-.067 0-.134-.066-.134-.066-.066 0-.133-.067-.266-.067-.067 0-.134 0-.134-.067-.066 0-.2-.066-.266-.066H32.2c-.067 0-.2 0-.267.066-.066 0-.133 0-.133.067-.067 0-.133.067-.267.067-.066 0-.133.066-.133.066-.067.067-.133.067-.2.134-.067 0-.067.066-.133.066-.067.067-.134.067-.2.133-.067 0-.067.067-.134.067-.066.067-.133.133-.2.133L30.4 22l-.2.2c0 .067-.067.067-.067.133H10.467c0-.066-.067-.066-.067-.133l-.2-.2-.133-.134c-.067-.066-.134-.133-.2-.133-.067-.067-.067-.067-.134-.067-.066-.066-.133-.066-.2-.133-.066 0-.066-.067-.133-.067-.067-.066-.133-.066-.2-.133-.067 0-.133-.066-.133-.066-.067 0-.134-.067-.267-.067-.067 0-.133 0-.133-.067-.067 0-.2-.066-.267-.066H7.333c-.066 0-.2 0-.266.066-.067 0-.134 0-.134.067-.066 0-.133.067-.2.067-.066 0-.133.066-.2.066-.066 0-.133.067-.2.067-.066 0-.133.067-.2.067-.066.066-.133.066-.2.133-.066.066-.133.066-.133.133l-.133.133c-.067.067-.134.067-.134.134-.2.067-.2.133-.266.2-.067.067-.067.133-.134.133h-3.8v-2.666h26c.4 0 .667-.267.667-.667V9h5.667l1.133 1.333h-2.133c-.4 0-.667.267-.667.667v3.666c0 .4.267.667.667.667h6v7Z" fill="#E7426A"/><path d="M22.8 5.4C22.2 2.267 19.467 0 16.2 0H11C7.8 0 5.067 2.267 4.4 5.4c-.8.267-1.4 1-1.4 1.867 0 .533.2 1 .533 1.333C3.2 8.933 3 9.4 3 9.933c0 .867.6 1.667 1.4 1.867.6 3.133 3.333 5.4 6.6 5.4h5.2c3.2 0 5.933-2.267 6.6-5.4.8-.267 1.4-1 1.4-1.867 0-.533-.2-1-.533-1.333.333-.333.533-.8.533-1.333.067-.867-.533-1.6-1.4-1.867ZM11 1.333h5.2c2.467 0 4.533 1.667 5.2 4h-.267L21 5.2c-.267-.4-.733-.533-1.2-.533h-.4c-.467 0-.933.2-1.267.533a.509.509 0 0 1-.333.133h-.4a.509.509 0 0 1-.333-.133c-.334-.4-.8-.533-1.267-.533h-.4c-.467 0-.933.2-1.267.533a.509.509 0 0 1-.333.133h-.4a.509.509 0 0 1-.333-.133c-.267-.4-.734-.533-1.2-.533h-.4c-.467 0-.934.2-1.267.533a.51.51 0 0 1-.333.133h-.4a.51.51 0 0 1-.334-.133c-.333-.4-.8-.533-1.266-.533h-.4c-.467 0-.934.2-1.267.533l-.133.067h-.2C6.467 3 8.6 1.333 11 1.333ZM5 6.6h1.6l.533-.533c.134-.067.2-.134.334-.134h.4a.51.51 0 0 1 .333.134c.333.333.8.533 1.267.533h.4c.466 0 .933-.2 1.266-.533a.51.51 0 0 1 .334-.134h.4a.51.51 0 0 1 .333.134c.333.333.8.533 1.267.533h.4c.466 0 .933-.2 1.266-.533a.505.505 0 0 1 .267-.134h.4a.51.51 0 0 1 .333.134c.334.333.8.533 1.267.533h.4c.467 0 .933-.2 1.267-.533a.51.51 0 0 1 .333-.134h.4a.51.51 0 0 1 .333.134l.534.533h1.6c.333 0 .666.267.666.667s-.266.666-.666.666H5a.668.668 0 0 1-.667-.666c0-.4.334-.667.667-.667Zm11.267 9.267h-5.2c-2.467 0-4.534-1.667-5.2-4h15.6c-.667 2.4-2.734 4-5.2 4Zm6-5.267H5a.668.668 0 0 1-.667-.667c0-.4.267-.666.667-.666h17.2c.333 0 .667.266.667.666s-.267.667-.6.667Z" fill="#E7426A"/></svg>