<svg width="29" height="37" viewBox="0 0 29 37" fill="none" xmlns="http://www.w3.org/2000/svg"><path d="M21.566 7.071a.896.896 0 0 0-1.517 0 71.46 71.46 0 0 0-3.578 6.853A83.569 83.569 0 0 0 9.985.421L9.984.42a.868.868 0 0 0-.162-.19.862.862 0 0 0-.158-.117H9.66a.881.881 0 0 0-.23-.087.805.805 0 0 0-.454.013.876.876 0 0 0-.182.073L8.79.113a.86.86 0 0 0-.195.152.87.87 0 0 0-.125.155l-.002.002C8.123.99 0 14.431 0 23.27 0 33.393 4.766 37 9.227 37a7.983 7.983 0 0 0 3.397-.758 7.838 7.838 0 0 0 2.73-2.124 6.481 6.481 0 0 0 2.356 2.117 6.62 6.62 0 0 0 3.097.765c3.7 0 7.655-2.97 7.655-11.305 0-7.218-6.615-18.162-6.896-18.624ZM9.227 35.264c-.42-.13-1.927-2.503-1.927-11.995 0-5.386 1.107-12.801 1.927-17.557.82 4.755 1.927 12.17 1.927 17.558 0 9.492-1.508 11.863-1.927 11.994ZM1.767 23.27c0-5.239 3.194-12.479 5.6-17.19-.815 4.802-1.834 11.865-1.834 17.19 0 4.173.286 8.878 1.379 11.555-3.225-1.313-5.145-5.492-5.145-11.554Zm9.775 11.555c1.093-2.677 1.38-7.381 1.38-11.554 0-5.326-1.02-12.388-1.835-17.19a67.706 67.706 0 0 1 4.424 10.568v.002c.361 1.169.653 2.357.875 3.558l.01.06c.043.244.081.483.114.718l.015.1c.03.22.055.434.077.646l.014.124c.019.204.032.401.044.597l.01.131c.01.234.017.463.017.686 0 .228-.002.454-.008.677-.082 3.35-.777 6.146-2.023 8.119a.657.657 0 0 0-.027.059 6.672 6.672 0 0 1-3.087 2.7Zm9.265.442c-1.827 0-3.33-.93-4.37-2.695 1.076-1.885 1.81-4.446 1.977-7.805l.01-.23c.018-.412.03-.831.03-1.267 0-.255-.008-.518-.022-.786-.006-.122-.017-.245-.026-.368-.01-.143-.02-.285-.034-.432a18.09 18.09 0 0 0-.058-.51c-.012-.1-.023-.2-.037-.3a22.9 22.9 0 0 0-.097-.637l-.03-.183a26.037 26.037 0 0 0-.145-.773l-.011-.056a34.05 34.05 0 0 0-.7-2.78 70.855 70.855 0 0 1 3.513-7.17c1.744 3.11 5.888 11.069 5.888 16.42 0 5.905-2.256 9.572-5.888 9.572Z" fill="#4E9DD3"/></svg>