<svg width="45" height="39" viewBox="0 0 45 39" fill="none" xmlns="http://www.w3.org/2000/svg"><g clip-path="url(#a)" fill="#4E9DD3"><path d="M32.873 15.397c-.68-3.553-3.822-6.091-7.475-6.091h-5.946c-3.652 0-6.795 2.622-7.475 6.091a2.184 2.184 0 0 0-1.614 2.115c0 .592.255 1.1.595 1.523-.34.423-.595.93-.595 1.523 0 1.015.68 1.86 1.614 2.114.68 3.554 3.823 6.091 7.475 6.091h5.946c3.653 0 6.796-2.622 7.475-6.09a2.184 2.184 0 0 0 1.614-2.115c0-.593-.255-1.1-.595-1.523.34-.423.595-.93.595-1.523 0-1.015-.68-1.861-1.614-2.115Zm-13.42-4.653h5.945c2.803 0 5.182 1.861 5.946 4.484h-.255l-.17-.17a1.993 1.993 0 0 0-1.444-.592h-.424c-.51 0-1.02.17-1.444.593-.085.084-.255.169-.34.169h-.425c-.17 0-.255-.085-.34-.17a1.994 1.994 0 0 0-1.444-.592h-.424c-.51 0-1.02.17-1.444.593-.085.084-.255.169-.34.169h-.425c-.17 0-.255-.085-.34-.17a1.993 1.993 0 0 0-1.444-.592h-.424c-.51 0-1.02.17-1.444.593-.085.084-.255.169-.34.169h-.425c-.17 0-.255-.085-.34-.17a1.994 1.994 0 0 0-1.444-.592H15.8c-.51 0-1.02.17-1.444.593l-.17.169h-.595c.68-2.538 3.058-4.484 5.861-4.484Zm-6.796 6.006h1.784l.594-.592c.085-.084.255-.084.425-.084h.425c.17 0 .254.084.34.169.424.423.934.592 1.443.592h.425c.51 0 1.02-.17 1.444-.592.085-.085.255-.17.34-.17h.51c.17 0 .254.085.34.17.424.423.934.592 1.443.592h.425c.51 0 1.02-.17 1.444-.592.085-.085.255-.17.34-.17h.425c.17 0 .255.085.34.17.424.423.934.592 1.443.592h.595c.51 0 1.02-.17 1.444-.592.085-.17.255-.17.34-.17h.425c.17 0 .254.085.34.17l.594.592h1.954a.76.76 0 0 1 .764.761.76.76 0 0 1-.764.762H12.657a.76.76 0 0 1-.765-.762c0-.422.34-.846.765-.846Zm12.741 10.575h-5.946c-2.803 0-5.181-1.86-5.946-4.483H31.26c-.68 2.538-3.058 4.483-5.86 4.483Zm6.88-6.006h-19.62a.76.76 0 0 1-.765-.761.76.76 0 0 1 .765-.762H32.28a.76.76 0 0 1 .764.762c0 .422-.425.76-.764.76Z"/><path d="M10.362 1.692c5.436 0 10.618 5.076 10.873 5.33.34.338.764.423 1.104.423.34 0 .765-.17 1.104-.423.085 0 2.634-2.538 6.116-4.061 1.784-.761 3.398-1.184 4.927-1.184 2.208 0 4.162.846 5.861 2.538 2.124 2.03 2.973 4.483 2.718 7.275-.934 10.321-16.819 22.503-20.726 25.38-1.699-1.27-5.606-4.23-9.598-8.037C6.03 22.25 2.208 16.328 1.698 11.505c-.17-2.791.68-5.16 2.718-7.275 1.869-1.861 3.992-2.538 5.946-2.538Zm0-1.692C7.644 0 5.265 1.015 3.227 3.046.763 5.584-.256 8.376-.001 11.675c.51 5.245 4.417 11.42 11.637 18.358 4.162 3.976 8.24 7.106 9.769 8.206l1.019.761 1.02-.761C28.2 34.77 43.83 22.588 44.848 11.675c.34-3.384-.764-6.26-3.228-8.63C39.583 1.016 37.204 0 34.486 0c-1.784 0-3.653.423-5.606 1.354a23.2 23.2 0 0 0-6.031 3.976h-.085l-.425.423C21.575 4.907 16.223 0 10.362 0Z"/></g><defs><clipPath id="a"><path fill="#fff" d="M0 0h44.85v39H0z"/></clipPath></defs></svg>