<svg width="40" height="40" viewBox="0 0 40 40" fill="none" xmlns="http://www.w3.org/2000/svg"><circle cx="20" cy="20" r="20" fill="#fff"/><path d="M24.48 10h-8.96A5.526 5.526 0 0 0 10 15.52v8.96A5.525 5.525 0 0 0 15.52 30h8.96A5.526 5.526 0 0 0 30 24.48v-8.96A5.526 5.526 0 0 0 24.48 10Zm3.746 14.48a3.75 3.75 0 0 1-3.745 3.745h-8.962a3.749 3.749 0 0 1-3.745-3.744v-8.962a3.75 3.75 0 0 1 3.745-3.745h8.962a3.75 3.75 0 0 1 3.744 3.745v8.962Z" fill="#292929"/><path d="M20 14.847A5.16 5.16 0 0 0 14.847 20 5.16 5.16 0 0 0 20 25.153 5.16 5.16 0 0 0 25.154 20 5.16 5.16 0 0 0 20 14.847Zm0 8.532A3.383 3.383 0 0 1 16.621 20a3.383 3.383 0 0 1 3.38-3.379 3.383 3.383 0 0 1 3.378 3.38A3.383 3.383 0 0 1 20 23.378Zm5.37-10.037a1.306 1.306 0 0 0-1.302 1.301 1.305 1.305 0 0 0 1.302 1.301c.343 0 .677-.14.92-.38.242-.243.381-.579.381-.92 0-.344-.139-.68-.381-.921a1.307 1.307 0 0 0-.92-.381Z" fill="#292929"/></svg>