<svg width="48" height="48" viewBox="0 0 48 48" fill="none" xmlns="http://www.w3.org/2000/svg"><rect width="48" height="48" rx="24" fill="#F7F7F7"/><path d="M16.976 22.456h-1.792V27h-1.28v-4.544H12.12V21.4h4.856v1.056Zm4.464 2.408c0 .016-.008.128-.024.336H18.16c.059.267.198.477.416.632.219.155.49.232.816.232.224 0 .422-.032.592-.096.176-.07.339-.176.488-.32l.664.72c-.405.464-.997.696-1.776.696-.485 0-.914-.093-1.288-.28a2.108 2.108 0 0 1-.864-.792 2.17 2.17 0 0 1-.304-1.144c0-.421.099-.8.296-1.136a2.1 2.1 0 0 1 .824-.792 2.415 2.415 0 0 1 1.176-.288 2.4 2.4 0 0 1 1.144.272c.342.181.608.443.8.784.198.336.296.728.296 1.176Zm-2.232-1.288c-.282 0-.52.08-.712.24a1.02 1.02 0 0 0-.352.656h2.12a1.016 1.016 0 0 0-.352-.648 1.042 1.042 0 0 0-.704-.248Zm5.085 1.792h-.648V27h-1.248v-4.304h1.248v1.672h.672l1.168-1.672h1.328l-1.504 2.064L26.917 27h-1.472l-1.152-1.632Zm5.152 1.696c-.459 0-.872-.093-1.24-.28a2.19 2.19 0 0 1-.856-.792 2.17 2.17 0 0 1-.304-1.144c0-.427.101-.808.304-1.144.208-.336.493-.597.856-.784a2.64 2.64 0 0 1 1.24-.288c.453 0 .848.096 1.184.288.341.187.59.456.744.808l-.968.52c-.224-.395-.547-.592-.968-.592-.326 0-.595.107-.808.32-.213.213-.32.504-.32.872s.107.659.32.872c.213.213.482.32.808.32.426 0 .75-.197.968-.592l.968.528a1.714 1.714 0 0 1-.744.8c-.336.192-.73.288-1.184.288Zm6.287-3.344h-1.456V27h-1.24v-3.28H31.58v-1.024h4.152v1.024Z" fill="#4E9DD3"/></svg>