<svg width="48" height="48" viewBox="0 0 48 48" fill="none" xmlns="http://www.w3.org/2000/svg"><rect width="48" height="48" rx="24" fill="#F7F7F7"/><path d="M28.824 18h-12.77a2.254 2.254 0 0 0-2.253 2.253v8.827a2.254 2.254 0 0 0 2.253 2.253h12.77a2.253 2.253 0 0 0 2.254-2.253v-8.826A2.254 2.254 0 0 0 28.824 18Zm-12.77 1.502h12.77a.751.751 0 0 1 .751.752v6.264l-2.816-2.591a.751.751 0 0 0-.973-.04l-2.828 2.231-3.424-3.141a.751.751 0 0 0-1.023 0l-3.208 3.046v-5.77a.751.751 0 0 1 .751-.75Zm12.77 10.329h-12.77a.752.752 0 0 1-.75-.751v-.992l3.732-3.523 4.459 4.081a.751.751 0 0 0 1.014-1.108l-.428-.393 2.137-1.68 3.357 3.098v.517a.751.751 0 0 1-.75.751Z" fill="#4E9DD3"/><path d="M22.772 24.195a2.081 2.081 0 1 0 .004-4.162 2.081 2.081 0 0 0-.004 4.162Zm0-2.657a.578.578 0 1 1 0 1.156.578.578 0 0 1 0-1.156Zm14.282 4.105 2.293-.028a.472.472 0 0 0 .464-.464l.004-.306a.445.445 0 0 0-.453-.453l-2.293.028.029-2.293a.445.445 0 0 0-.453-.453l-.306.004a.472.472 0 0 0-.464.464l-.029 2.294-2.292.028a.472.472 0 0 0-.465.464l-.003.306c-.003.253.2.456.453.453l2.292-.029-.028 2.293c-.003.253.2.456.453.453l.306-.004a.472.472 0 0 0 .464-.464l.028-2.293Z" fill="#4E9DD3"/></svg>