<svg width="124" height="125" viewBox="0 0 124 125" fill="none" xmlns="http://www.w3.org/2000/svg"><path d="M105.925 105.925c-24.2 24.2-63.4 24.2-87.7 0-24.3-24.3-24.3-63.5 0-87.7 24.2-24.3 63.4-24.3 87.7 0 24.1 24.2 24.1 63.4 0 87.7Z" fill="#B3D9F3"/><path d="m79.325 40.025-.6 27.4s-3.4 4.2-16.8 4.2c-13.2 0-15.3-4.8-15.3-4.8l-.5-25.2c-.6.1.7 0 0 0-7.1.1-14.1-5.6-14.1-12.7s5.8-12.9 12.9-12.9c1.8 0 3.6.4 5.2 1.1 2.1-4.2 6.6-7.1 11.6-7.1 4.8 0 8.7 2.7 11 6.6 2.1-1.6 4.7-2.4 7.6-2.4 7.1 0 12.9 5.7 12.9 12.9.1 7.1-6.7 12.9-13.9 12.9.6 0-.4 0 0 0Z" fill="#fff"/><path d="M27.726 56.725c0-1.1-.1-2-.2-2.5-.2-1.2-.8-2.3-1.8-3.2-1-.9-2.1-1.3-3.5-1.3s-2.7.5-3.7 1.5c-1.1-1-2.3-1.5-3.7-1.5-1.3 0-2.6.5-3.5 1.3-.9.8-1.6 1.8-1.9 3.2-.1.6-.2 1.4-.2 2.5v8.6c0 .5.4.7.7.7.5 0 .7-.4.7-.7v-8.9c0-1.6.3-2.9 1-3.9.7-1.1 1.8-1.6 3.3-1.6 1.1 0 2 .4 2.8 1.2-.7 1.2-1 2.5-1 4.3v8.8c0 .4.3.7.7.7.5 0 .7-.4.7-.7v-8.9c0-1.3.2-2.3.5-3 .3.8.5 2 .5 3.4v8.6c0 .4.3.7.7.7.5 0 .7-.4.7-.7v-9.2c0-1.8-.3-3.1-1-4.1.7-.7 1.6-1.1 2.7-1.1 1 0 1.9.3 2.6.9.7.5 1.2 1.3 1.5 2.3.2.6.2 1.3.2 2.3v8.9c0 .4.3.7.7.7.5 0 .7-.4.7-.7l-.1-.5v-8.1h-.1Zm16.2-4.5c-1.6-1.6-3.6-2.4-5.9-2.4-2.3 0-4.3.8-5.9 2.4-1.6 1.6-2.4 3.6-2.4 5.9 0 2.3.8 4.3 2.5 5.9 1.7 1.6 3.7 2.4 6 2.4 1.7 0 3.3-.5 4.6-1.4v.2c0 .7.4.9.7.9.3 0 .7-.3.7-.9v-1.3c1.6-1.7 2.4-3.6 2.4-5.8-.2-2.4-1.1-4.4-2.7-5.9Zm-1.3 6v5.2c-1.4 1.2-2.9 1.8-4.6 1.8-1.9 0-3.6-.7-4.9-2.1-1.4-1.3-2-2.9-2-4.9 0-2 .7-3.6 2.1-5 1.4-1.4 3-2.1 5-2.1 1.9 0 3.6.7 4.9 2.1 1.3 1.4 2.1 3 2.1 4.9 0 1.4-.4 2.6-1.1 3.7v-3.6c-.2-1-1.5-1-1.5 0Zm12.799 8.2c1.9 0 3.7-.6 5.3-1.9.4-.3.7-.5.9-.8h.1v-.1c.1-.1.1-.2.1-.4 0-.3-.2-.6-.6-.6h-.4l-.1.2v.2c-.7.6-1.5 1.2-2.3 1.6-.9.4-1.9.7-2.8.7-2 0-3.6-.7-4.9-2.1-1.4-1.4-2.1-3-2.1-5 0-1.9.7-3.6 2.1-4.9 1.3-1.4 2.9-2 4.9-2 1.9 0 3.6.7 5 2.1l.3.2h.4l.1-.1c.2-.1.3-.3.3-.5v-.2l-.1-.1s0-.1-.1-.1c-.1-.1-.1-.2-.2-.2-1.5-1.6-3.5-2.5-5.9-2.5-2.3 0-4.3.8-5.9 2.4-1.6 1.6-2.4 3.6-2.4 5.9 0 2.2.8 4.2 2.4 5.9 1.7 1.5 3.7 2.3 5.9 2.3Zm20.601-14.2c-1.6-1.6-3.6-2.4-5.9-2.4-2.3 0-4.3.8-5.9 2.4-1.6 1.6-2.4 3.6-2.4 5.9 0 2.3.8 4.3 2.4 5.9 1.7 1.6 3.7 2.4 6 2.4 1.7 0 3.3-.5 4.6-1.4v.2c0 .7.4.9.7.9.3 0 .7-.3.7-.9v-1.3c1.6-1.7 2.4-3.6 2.4-5.8-.1-2.5-.9-4.4-2.6-5.9Zm-1.3 6v5.2c-1.4 1.2-2.9 1.8-4.6 1.8-1.9 0-3.6-.7-5-2.1-1.4-1.3-2-2.9-2-4.9 0-2 .7-3.6 2.1-5 1.4-1.4 3-2.1 5-2.1 1.9 0 3.6.7 4.9 2.1 1.4 1.4 2.1 3 2.1 4.9 0 1.4-.4 2.7-1.1 3.8v-3.6c-.1-1.1-1.4-1.1-1.4-.1Zm5.9 7.9c.5 0 .7-.4.7-.7v-6.5c0-1.7.1-2.7.3-3.4.3-1.1.9-2 1.7-2.7.8-.7 1.7-1.1 2.7-1.4.5 0 .7-.4.7-.7 0-.5-.3-.6-.5-.7h-.2c-.5 0-1.1.2-1.8.6-1.2.6-2.2 1.4-2.9 2.5v-2.3c0-1-1.4-1-1.4 0v14.6c0 .4.3.7.7.7Zm20.599-13.9c-1.6-1.6-3.6-2.4-5.9-2.4-2.3 0-4.3.8-5.9 2.4-1.6 1.6-2.4 3.6-2.4 5.9 0 2.3.8 4.3 2.4 5.9 1.7 1.6 3.7 2.4 6 2.4s4.3-.8 5.9-2.5c1.6-1.7 2.4-3.7 2.4-6 0-2.2-.8-4.2-2.5-5.7Zm-5.9-1.1c1.9 0 3.6.7 4.9 2.1 1.4 1.4 2.1 3 2.1 4.9 0 2-.7 3.7-2.2 5-1.3 1.4-2.9 2-4.9 2-1.9 0-3.6-.7-4.9-2.1-1.4-1.4-2.1-3-2.1-4.9 0-2 .7-3.6 2.1-5 1.3-1.4 3-2 5-2Zm21.4 2.9c-.2-1.2-.8-2.2-1.9-3.1-1-.8-2.2-1.3-3.5-1.3-1 0-1.9.2-2.7.7-.6.4-1.2.8-1.6 1.4v-1c0-1-1.4-1-1.4 0v14.6c0 .5.4.7.7.7.5 0 .7-.4.7-.7v-8.3c0-.9 0-1.7.1-2.1.2-1.2.6-2.1 1.3-2.8.8-.7 1.8-1.1 2.8-1.1.8 0 1.6.2 2.2.6.9.5 1.5 1.3 1.7 2.3.2.6.2 1.7.2 3.1v8.3c0 .4.3.7.7.7.2 0 .4-.1.5-.2h.3v-9.5c.1-.9 0-1.7-.1-2.3Zm-76.2 31.3c-.7 0-.8.4-.8.7 0 .5.4.7.7.7.8 0 1.4.2 2.1.6 1.3.7 2 1.9 2 3.4 0 1.1-.4 2-1.2 2.8-.8.8-1.7 1.2-2.8 1.2-1.6 0-2.7-.7-3.6-2.1-.3-.4-.5-1-.5-1.7 0-.5-.3-.8-.7-.8-.5 0-.7.4-.7.7 0 1.4.6 2.7 1.7 3.6 1 1 2.3 1.5 3.7 1.5 1.5 0 2.8-.5 3.8-1.6 1-1 1.6-2.3 1.6-3.8s-.5-2.7-1.5-3.7c-1-.9-2.3-1.5-3.8-1.5Z" fill="#000"/><path d="M40.225 81.125c1.3 0 2.2.5 2.8 1.6.1.2.3.6.4 1 0 .5.3.8.7.8.4 0 .7-.3.7-.7 0-1.2-.6-2.2-1.6-2.8-.9-.8-1.9-1.2-3.1-1.2-1.2 0-2.3.4-3.2 1.3-.8 1-1.3 2-1.3 3.2 0 1.2.4 2.3 1.3 3.2.8.9 1.9 1.4 3.1 1.4.5 0 .8-.3.8-.7 0-.4-.3-.7-.7-.7-.9 0-1.6-.3-2.2-.9-.6-.6-.9-1.4-.9-2.3 0-.9.3-1.7.9-2.3.8-.6 1.5-.9 2.3-.9Zm17.7 5.4c0-1.1-.1-1.9-.2-2.4-.3-1.3-.9-2.3-1.8-3-1-.9-2-1.3-3.3-1.3-.9 0-1.8.2-2.6.7-.7.3-1.2.8-1.6 1.3v-6c0-1-1.4-1-1.4 0v19.1c0 .5.4.7.7.7.5 0 .7-.4.7-.7v-8c0-.6 0-1.1.1-1.5v-.6c.2-1.1.6-2 1.3-2.7.8-.7 1.6-1 2.8-1 .8 0 1.6.2 2.2.6.9.6 1.4 1.3 1.6 2.2.2.6.2 1.6.2 3v8c0 .4.3.7.7.7.5 0 .7-.4.7-.7l-.1-.5v-7.9Zm15.4-4.4c-1.6-1.6-3.5-2.4-5.7-2.4s-4.2.8-5.7 2.4c-1.6 1.6-2.4 3.5-2.4 5.7s.8 4.2 2.4 5.7c1.6 1.6 3.5 2.4 5.8 2.4s4.2-.8 5.7-2.4c1.6-1.6 2.4-3.5 2.4-5.8s-.8-4.1-2.5-5.6Zm-10.5 10.5c-1.3-1.3-2-2.9-2-4.8s.7-3.5 2-4.9c1.3-1.3 2.9-2 4.9-2 1.8 0 3.5.7 4.8 2 1.3 1.3 2 2.9 2 4.8s-.7 3.6-2.1 4.9c-1.3 1.3-2.9 2-4.8 2-1.8 0-3.5-.7-4.8-2Zm22.4-12.9c-2.3 0-4.2.8-5.7 2.4-1.5 1.6-2.4 3.5-2.4 5.7s.8 4.1 2.3 5.7v6.5c0 .4.3.7.7.7.5 0 .7-.4.7-.7v-5.3c1.3.9 2.8 1.3 4.4 1.3 2.3 0 4.3-.8 5.8-2.3 1.6-1.6 2.5-3.4 2.5-5.7 0-2.3-.9-4.2-2.5-5.8-1.6-1.7-3.5-2.5-5.8-2.5Zm-5.1 7.4c-.3 0-.7.3-.7.8v3.4c-.6-1-.9-2.2-.9-3.5 0-1.8.7-3.5 2-4.8 1.4-1.4 3-2 4.9-2 1.9 0 3.5.7 4.9 2 1.3 1.3 2 2.9 2 4.9 0 1.9-.7 3.5-2.1 4.8-1.3 1.3-2.9 2-4.8 2-1.7 0-3.2-.6-4.5-1.8v-5c-.1-.7-.5-.8-.8-.8Zm-23.399 15.2v7.2l6.5-3.7-6.5-3.5Z" fill="#000"/><path d="M69.426 102.325v7.2l-6.5-3.7 6.5-3.5Z" fill="#000"/></svg>