<svg width="46" height="40" viewBox="0 0 46 40" fill="none" xmlns="http://www.w3.org/2000/svg"><path d="M38.956 5.49A6.646 6.646 0 0 0 32.4.042h-5.166c-3.179 0-5.894 2.286-6.556 5.446-.795.27-1.39 1.009-1.39 1.883 0 .538.198 1.009.529 1.345-.331.336-.53.807-.53 1.345 0 .874.596 1.68 1.39 1.882a6.646 6.646 0 0 0 6.557 5.447H32.4c3.179 0 5.894-2.286 6.556-5.447.795-.269 1.391-1.008 1.391-1.882 0-.538-.198-1.009-.53-1.345.332-.336.53-.807.53-1.345.066-.874-.53-1.614-1.39-1.883ZM27.234 1.387H32.4c2.45 0 4.504 1.68 5.166 4.034H37.3l-.133-.134c-.264-.404-.728-.538-1.192-.538h-.397a1.79 1.79 0 0 0-1.258.538.502.502 0 0 1-.331.134h-.398a.502.502 0 0 1-.331-.134c-.331-.404-.795-.538-1.258-.538h-.398c-.463 0-.927.201-1.258.538a.502.502 0 0 1-.331.134h-.397a.502.502 0 0 1-.332-.134c-.264-.404-.728-.538-1.192-.538h-.397a1.79 1.79 0 0 0-1.258.538.502.502 0 0 1-.332.134h-.397a.502.502 0 0 1-.331-.134c-.331-.404-.795-.538-1.258-.538h-.398c-.463 0-.927.201-1.258.538l-.132.067h-.2c.597-2.286 2.716-3.967 5.1-3.967ZM21.274 6.7h1.59l.53-.538c.132-.067.198-.135.33-.135h.398c.132 0 .265.068.33.135a1.8 1.8 0 0 0 1.26.538h.396c.464 0 .928-.202 1.259-.538a.502.502 0 0 1 .33-.135h.398c.133 0 .265.068.331.135a1.8 1.8 0 0 0 1.259.538h.397c.464 0 .927-.202 1.258-.538a.5.5 0 0 1 .265-.135h.398c.132 0 .265.068.33.135.332.336.796.538 1.26.538h.396c.464 0 .928-.202 1.259-.538a.502.502 0 0 1 .331-.135h.397c.133 0 .265.068.331.135l.53.538h1.59c.33 0 .662.269.662.672 0 .404-.265.672-.662.672H21.274a.669.669 0 0 1-.662-.672c0-.403.33-.672.662-.672Zm11.192 9.346h-5.165c-2.45 0-4.504-1.681-5.166-4.034h15.497c-.662 2.42-2.715 4.034-5.166 4.034Zm5.96-5.312H21.275a.669.669 0 0 1-.662-.672c0-.404.265-.673.662-.673H38.36c.33 0 .662.27.662.673s-.265.672-.596.672Z" fill="#E7426A"/><path d="m1.766 26.088.003-.003 2.703-2.393a1.718 1.718 0 0 1 2.42.147l.045.05.409.462.367-.495c.872-1.176 1.874-2.282 3.013-3.158 2.657-2.048 6.21-3.007 9.097-1.245 1.783 1.09 3.785 1.997 5.894 2.375l.044.008h6.108c1.075 0 1.848.615 2.096 1.614l.196.79.616-.532 6.452-5.58c.95-.823 2.177-.682 2.994.26.822.956.78 2.23-.18 3.063l-10.744 9.315c-1.631 1.415-3.456 2.146-5.612 2.248l-11.296.536-.69.032.247.646a1.715 1.715 0 0 1-.463 1.898l-2.702 2.393a1.719 1.719 0 0 1-2.42-.147l-8.74-9.867c-.622-.702-.559-1.805.143-2.417Zm32.103-1.075-.07.06-.044.081c-.329.612-.94 1.068-1.885 1.068H18.684a.2.2 0 0 1-.199-.2.2.2 0 0 1 .2-.198H31.87c.512 0 .965-.18 1.29-.52.321-.337.48-.791.48-1.275 0-.475-.153-.928-.47-1.267-.323-.343-.778-.528-1.3-.528h-6.09l-.075-.007c-2.154-.379-4.197-1.283-6.086-2.437-2.882-1.761-6.326-.572-8.65 1.218-1.22.94-2.24 2.107-3.116 3.326l-.234.325.265.299 7.153 8.075.159.18.239-.012 12.234-.58c2.062-.096 3.816-.801 5.374-2.152l10.745-9.316c.391-.34.602-.781.614-1.249.012-.46-.168-.901-.476-1.26-.301-.35-.7-.59-1.148-.643-.455-.054-.909.093-1.29.423l-7.62 6.59ZM2.032 26.381l-.001.001a1.323 1.323 0 0 0-.157 1.81l.008.01.008.01 8.767 9.9a1.328 1.328 0 0 0 1.865.113l2.703-2.394a1.326 1.326 0 0 0 .112-1.865l-2.204-2.49-6.535-7.377a1.328 1.328 0 0 0-1.866-.112l-2.7 2.394Z" fill="#EE3686" stroke="#E7426A"/></svg>