<svg width="48" height="34" viewBox="0 0 48 34" fill="none" xmlns="http://www.w3.org/2000/svg"><path d="m47.323 17.315-6.26-7.435c-.157-.157-.392-.313-.627-.313h-8.608v12.522H.523v5.478c0 .47.313.782.783.782h4.54c-.08.235-.08.548-.08.783a3.875 3.875 0 0 0 3.914 3.913 3.875 3.875 0 0 0 3.913-3.913c0-.235 0-.548-.078-.783h21.521c-.078.235-.078.548-.078.783a3.875 3.875 0 0 0 3.913 3.913 3.875 3.875 0 0 0 3.913-3.913c0-.235 0-.548-.078-.783h3.991c.47 0 .783-.313.783-.782v-9.783c0-.156-.078-.313-.157-.47Zm-2.27-.313h-5.4v-2.74h3.053l2.348 2.74ZM9.68 31.48c-1.33 0-2.348-1.018-2.348-2.348 0-.391.078-.783.313-1.174a2.335 2.335 0 0 1 2.035-1.174c.235 0 .391 0 .626.079a1.74 1.74 0 0 1 1.017.626c.157.156.235.313.392.47.235.39.313.782.313 1.173 0 1.33-1.096 2.348-2.348 2.348Zm29.191 0c-1.33 0-2.348-1.018-2.348-2.348 0-.391.079-.783.313-1.174a2.335 2.335 0 0 1 2.035-1.174c.235 0 .392 0 .626.079a1.74 1.74 0 0 1 1.018.626c.156.156.234.313.391.47.235.39.313.782.313 1.173 0 1.33-1.017 2.348-2.348 2.348Zm7.044-4.696h-3.913c0-.078-.079-.078-.079-.156a259.89 259.89 0 0 0-.234-.235l-.157-.157c-.078-.078-.156-.156-.235-.156-.078-.078-.078-.078-.156-.078-.078-.079-.157-.079-.235-.157-.078 0-.078-.078-.157-.078-.078-.078-.156-.078-.234-.157-.078 0-.157-.078-.157-.078-.078 0-.156-.078-.313-.078-.078 0-.156 0-.156-.078-.079 0-.235-.079-.313-.079h-1.253c-.078 0-.234 0-.313.079-.078 0-.156 0-.156.078-.078 0-.157.078-.313.078-.078 0-.157.078-.157.078-.078.079-.156.079-.234.157-.079 0-.079.078-.157.078-.078.078-.157.078-.235.157-.078 0-.078.078-.156.078-.079.078-.157.157-.235.157l-.157.156-.234.235c0 .078-.079.078-.079.156H12.81c0-.078-.078-.078-.078-.156a259.89 259.89 0 0 0-.235-.235l-.156-.157c-.078-.078-.157-.156-.235-.156-.078-.078-.078-.078-.156-.078-.079-.079-.157-.079-.235-.157-.079 0-.079-.078-.157-.078-.078-.078-.156-.078-.235-.157-.078 0-.156-.078-.156-.078-.078 0-.157-.078-.313-.078-.078 0-.157 0-.157-.078-.078 0-.234-.079-.313-.079H9.132c-.078 0-.235 0-.313.079-.078 0-.156 0-.156.078-.079 0-.157.078-.235.078-.078 0-.157.078-.235.078-.078 0-.157.079-.235.079-.078 0-.156.078-.235.078-.078.078-.156.078-.234.156-.079.079-.157.079-.157.157l-.156.157c-.079.078-.157.078-.157.156-.235.078-.235.156-.313.235-.078.078-.078.156-.156.156H2.089v-3.13H32.61c.47 0 .783-.313.783-.783V11.132h6.652l1.33 1.565h-2.504c-.47 0-.782.313-.782.783v4.304c0 .47.313.783.782.783h7.044v8.217Z" fill="#E7426A"/><path d="M27.29 6.906c-.704-3.679-3.913-6.34-7.747-6.34h-6.105c-3.756 0-6.965 2.661-7.748 6.34-.939.313-1.643 1.173-1.643 2.19 0 .627.235 1.175.626 1.566-.391.391-.626.94-.626 1.565 0 1.018.704 1.957 1.643 2.192.705 3.678 3.913 6.339 7.748 6.339h6.104c3.757 0 6.966-2.661 7.748-6.34.94-.313 1.644-1.173 1.644-2.19 0-.627-.235-1.175-.626-1.566.391-.391.626-.94.626-1.565.078-1.018-.626-1.878-1.644-2.191ZM13.438 2.132h6.104c2.896 0 5.322 1.956 6.105 4.695h-.313l-.157-.156c-.313-.47-.86-.626-1.408-.626h-.47c-.548 0-1.096.234-1.487.626a.598.598 0 0 1-.391.156h-.47a.598.598 0 0 1-.391-.156c-.391-.47-.94-.626-1.487-.626h-.47c-.547 0-1.095.234-1.487.626a.597.597 0 0 1-.39.156h-.47a.597.597 0 0 1-.392-.156c-.313-.47-.86-.626-1.408-.626h-.47c-.548 0-1.096.234-1.487.626a.597.597 0 0 1-.391.156h-.47a.598.598 0 0 1-.391-.156c-.391-.47-.94-.626-1.487-.626h-.47c-.547 0-1.095.234-1.487.626l-.156.078h-.235c.704-2.66 3.209-4.617 6.026-4.617ZM6.395 8.314h1.878l.626-.626c.157-.078.235-.156.391-.156h.47c.156 0 .313.078.391.156.392.391.94.626 1.487.626h.47a2.14 2.14 0 0 0 1.487-.626.598.598 0 0 1 .391-.156h.47c.156 0 .313.078.39.156.392.391.94.626 1.488.626h.47c.547 0 1.095-.235 1.486-.626.079-.078.235-.156.313-.156h.47c.157 0 .313.078.391.156.392.391.94.626 1.487.626h.47a2.14 2.14 0 0 0 1.487-.626.598.598 0 0 1 .391-.156h.47c.156 0 .313.078.39.156l.627.626h1.878c.392 0 .783.313.783.783 0 .47-.313.782-.783.782H6.394a.784.784 0 0 1-.782-.782c0-.47.391-.783.783-.783ZM19.62 19.192h-6.105c-2.895 0-5.321-1.956-6.104-4.695h18.313c-.783 2.817-3.209 4.695-6.104 4.695Zm7.043-6.182H6.394a.784.784 0 0 1-.782-.783c0-.47.313-.782.783-.782h20.191c.391 0 .783.313.783.782 0 .47-.313.783-.705.783Z" fill="#E7426A"/></svg>