<svg width="40" height="40" viewBox="0 0 40 40" fill="none" xmlns="http://www.w3.org/2000/svg"><circle cx="20" cy="20" r="20" fill="#fff"/><path fill-rule="evenodd" clip-rule="evenodd" d="M19.764 25.867h1.315s.397-.042.6-.25c.186-.19.18-.548.18-.548s-.025-1.675.794-1.922c.807-.243 1.844 1.62 2.943 2.336.83.541 1.462.423 1.462.423l2.938-.04s1.537-.09.808-1.236c-.06-.094-.424-.85-2.184-2.4-1.843-1.624-1.596-1.361.623-4.17 1.352-1.71 1.892-2.754 1.723-3.201-.16-.426-1.155-.313-1.155-.313l-3.308.019s-.245-.032-.427.072c-.178.1-.292.337-.292.337s-.524 1.323-1.222 2.449c-1.473 2.375-2.062 2.5-2.303 2.353-.56-.344-.42-1.381-.42-2.118 0-2.302.368-3.261-.716-3.51-.36-.082-.624-.136-1.544-.145-1.18-.012-2.179.003-2.745.266-.376.175-.666.565-.49.588.22.027.714.126.977.466.339.438.327 1.421.327 1.421s.195 2.71-.455 3.046c-.446.23-1.058-.24-2.37-2.395a19.587 19.587 0 0 1-1.182-2.324s-.098-.228-.272-.35a1.416 1.416 0 0 0-.509-.194l-3.143.019s-.472.013-.645.207c-.154.174-.012.532-.012.532s2.46 5.467 5.247 8.222c2.555 2.526 5.457 2.36 5.457 2.36Z" fill="#292929"/></svg>