<svg width="40" height="28" viewBox="0 0 40 28" fill="none" xmlns="http://www.w3.org/2000/svg">
<path d="M39.8667 14.2665L34.5333 7.93317C34.4 7.79984 34.2 7.6665 34 7.6665H26.6667V18.3332H0V22.9998C0 23.3998 0.266667 23.6665 0.666667 23.6665H4.53333C4.46667 23.8665 4.46667 24.1332 4.46667 24.3332C4.46667 26.1998 5.93333 27.6665 7.8 27.6665C9.66667 27.6665 11.1333 26.1998 11.1333 24.3332C11.1333 24.1332 11.1333 23.8665 11.0667 23.6665H29.4C29.3333 23.8665 29.3333 24.1332 29.3333 24.3332C29.3333 26.1998 30.8 27.6665 32.6667 27.6665C34.5333 27.6665 36 26.1998 36 24.3332C36 24.1332 36 23.8665 35.9333 23.6665H39.3333C39.7333 23.6665 40 23.3998 40 22.9998V14.7332V14.6665C40 14.5332 39.9333 14.3998 39.8667 14.2665ZM37.9333 13.9998H33.3333V11.6665H35.9333L37.9333 13.9998ZM7.8 26.3332C6.66667 26.3332 5.8 25.4665 5.8 24.3332C5.8 23.9998 5.86667 23.6665 6.06667 23.3332C6.4 22.7332 7.06667 22.3332 7.8 22.3332C8 22.3332 8.13333 22.3332 8.33333 22.3998C8.66667 22.4665 9 22.6665 9.2 22.9332C9.33333 23.0665 9.4 23.1998 9.53333 23.3332C9.73333 23.6665 9.8 23.9998 9.8 24.3332C9.8 25.4665 8.86667 26.3332 7.8 26.3332ZM32.6667 26.3332C31.5333 26.3332 30.6667 25.4665 30.6667 24.3332C30.6667 23.9998 30.7333 23.6665 30.9333 23.3332C31.2667 22.7332 31.9333 22.3332 32.6667 22.3332C32.8667 22.3332 33 22.3332 33.2 22.3998C33.5333 22.4665 33.8667 22.6665 34.0667 22.9332C34.2 23.0665 34.2667 23.1998 34.4 23.3332C34.6 23.6665 34.6667 23.9998 34.6667 24.3332C34.6667 25.4665 33.8 26.3332 32.6667 26.3332ZM38.6667 22.3332H35.3333C35.3333 22.2665 35.2667 22.2665 35.2667 22.1998C35.2 22.1332 35.1333 22.0665 35.0667 21.9998C35 21.9332 35 21.9332 34.9333 21.8665C34.8667 21.7998 34.8 21.7332 34.7333 21.7332C34.6667 21.6665 34.6667 21.6665 34.6 21.6665C34.5333 21.5998 34.4667 21.5998 34.4 21.5332C34.3333 21.5332 34.3333 21.4665 34.2667 21.4665C34.2 21.3998 34.1333 21.3998 34.0667 21.3332C34 21.3332 33.9333 21.2665 33.9333 21.2665C33.8667 21.2665 33.8 21.1998 33.6667 21.1998C33.6 21.1998 33.5333 21.1998 33.5333 21.1332C33.4667 21.1332 33.3333 21.0665 33.2667 21.0665C33.2 21.0665 33.2 21.0665 33.1333 21.0665C33 21.0665 32.8667 21.0665 32.7333 21.0665C32.6 21.0665 32.4667 21.0665 32.3333 21.0665C32.2667 21.0665 32.2667 21.0665 32.2 21.0665C32.1333 21.0665 32 21.0665 31.9333 21.1332C31.8667 21.1332 31.8 21.1332 31.8 21.1998C31.7333 21.1998 31.6667 21.2665 31.5333 21.2665C31.4667 21.2665 31.4 21.3332 31.4 21.3332C31.3333 21.3998 31.2667 21.3998 31.2 21.4665C31.1333 21.4665 31.1333 21.5332 31.0667 21.5332C31 21.5998 30.9333 21.5998 30.8667 21.6665C30.8 21.6665 30.8 21.7332 30.7333 21.7332C30.6667 21.7998 30.6 21.8665 30.5333 21.8665C30.4667 21.9332 30.4667 21.9332 30.4 21.9998C30.3333 22.0665 30.2667 22.1332 30.2 22.1998C30.2 22.2665 30.1333 22.2665 30.1333 22.3332H10.4667C10.4667 22.2665 10.4 22.2665 10.4 22.1998C10.3333 22.1332 10.2667 22.0665 10.2 21.9998C10.1333 21.9332 10.1333 21.9332 10.0667 21.8665C10 21.7998 9.93333 21.7332 9.86667 21.7332C9.8 21.6665 9.8 21.6665 9.73333 21.6665C9.66667 21.5998 9.6 21.5998 9.53333 21.5332C9.46667 21.5332 9.46667 21.4665 9.4 21.4665C9.33333 21.3998 9.26667 21.3998 9.2 21.3332C9.13333 21.3332 9.06667 21.2665 9.06667 21.2665C9 21.2665 8.93333 21.1998 8.8 21.1998C8.73333 21.1998 8.66667 21.1998 8.66667 21.1332C8.6 21.1332 8.46667 21.0665 8.4 21.0665C8.33333 21.0665 8.33333 21.0665 8.26667 21.0665C8.13333 21.0665 8 21.0665 7.86667 21.0665C7.73333 21.0665 7.6 21.0665 7.46667 21.0665C7.4 21.0665 7.4 21.0665 7.33333 21.0665C7.26667 21.0665 7.13333 21.0665 7.06667 21.1332C7 21.1332 6.93333 21.1332 6.93333 21.1998C6.86667 21.1998 6.8 21.2665 6.73333 21.2665C6.66667 21.2665 6.6 21.3332 6.53333 21.3332C6.46667 21.3332 6.4 21.3998 6.33333 21.3998C6.26667 21.3998 6.2 21.4665 6.13333 21.4665C6.06667 21.5332 6 21.5332 5.93333 21.5998C5.86667 21.6665 5.8 21.6665 5.8 21.7332C5.73333 21.7998 5.73333 21.7998 5.66667 21.8665C5.6 21.9332 5.53333 21.9332 5.53333 21.9998C5.33333 22.0665 5.33333 22.1332 5.26667 22.1998C5.2 22.2665 5.2 22.3332 5.13333 22.3332H1.33333V19.6665H27.3333C27.7333 19.6665 28 19.3998 28 18.9998V8.99984H33.6667L34.8 10.3332H32.6667C32.2667 10.3332 32 10.5998 32 10.9998V14.6665C32 15.0665 32.2667 15.3332 32.6667 15.3332H38.6667V22.3332Z" fill="#E7426A"/>
<path d="M22.8 5.4C22.2 2.26667 19.4667 0 16.2 0H11C7.8 0 5.06667 2.26667 4.4 5.4C3.6 5.66667 3 6.4 3 7.26667C3 7.8 3.2 8.26667 3.53333 8.6C3.2 8.93333 3 9.4 3 9.93333C3 10.8 3.6 11.6 4.4 11.8C5 14.9333 7.73333 17.2 11 17.2H16.2C19.4 17.2 22.1333 14.9333 22.8 11.8C23.6 11.5333 24.2 10.8 24.2 9.93333C24.2 9.4 24 8.93333 23.6667 8.6C24 8.26667 24.2 7.8 24.2 7.26667C24.2667 6.4 23.6667 5.66667 22.8 5.4ZM11 1.33333H16.2C18.6667 1.33333 20.7333 3 21.4 5.33333H21.1333L21 5.2C20.7333 4.8 20.2667 4.66667 19.8 4.66667H19.4C18.9333 4.66667 18.4667 4.86667 18.1333 5.2C18.0667 5.26667 17.9333 5.33333 17.8 5.33333H17.4C17.2667 5.33333 17.1333 5.26667 17.0667 5.2C16.7333 4.8 16.2667 4.66667 15.8 4.66667H15.4C14.9333 4.66667 14.4667 4.86667 14.1333 5.2C14.0667 5.26667 13.9333 5.33333 13.8 5.33333H13.4C13.2667 5.33333 13.1333 5.26667 13.0667 5.2C12.8 4.8 12.3333 4.66667 11.8667 4.66667H11.4667C11 4.66667 10.5333 4.86667 10.2 5.2C10.1333 5.26667 10 5.33333 9.86667 5.33333H9.46667C9.33333 5.33333 9.2 5.26667 9.13333 5.2C8.8 4.8 8.33333 4.66667 7.86667 4.66667H7.46667C7 4.66667 6.53333 4.86667 6.2 5.2L6.06667 5.26667H5.86667C6.46667 3 8.6 1.33333 11 1.33333ZM5 6.6H6.6L7.13333 6.06667C7.26667 6 7.33333 5.93333 7.46667 5.93333H7.86667C8 5.93333 8.13333 6 8.2 6.06667C8.53333 6.4 9 6.6 9.46667 6.6H9.86667C10.3333 6.6 10.8 6.4 11.1333 6.06667C11.2 6 11.3333 5.93333 11.4667 5.93333H11.8667C12 5.93333 12.1333 6 12.2 6.06667C12.5333 6.4 13 6.6 13.4667 6.6H13.8667C14.3333 6.6 14.8 6.4 15.1333 6.06667C15.2 6 15.3333 5.93333 15.4 5.93333H15.8C15.9333 5.93333 16.0667 6 16.1333 6.06667C16.4667 6.4 16.9333 6.6 17.4 6.6H17.8C18.2667 6.6 18.7333 6.4 19.0667 6.06667C19.1333 6 19.2667 5.93333 19.4 5.93333H19.8C19.9333 5.93333 20.0667 6 20.1333 6.06667L20.6667 6.6H22.2667C22.6 6.6 22.9333 6.86667 22.9333 7.26667C22.9333 7.66667 22.6667 7.93333 22.2667 7.93333H5C4.66667 7.93333 4.33333 7.66667 4.33333 7.26667C4.33333 6.86667 4.66667 6.6 5 6.6ZM16.2667 15.8667H11.0667C8.6 15.8667 6.53333 14.2 5.86667 11.8667H21.4667C20.8 14.2667 18.7333 15.8667 16.2667 15.8667ZM22.2667 10.6H5C4.66667 10.6 4.33333 10.3333 4.33333 9.93333C4.33333 9.53333 4.6 9.26667 5 9.26667H22.2C22.5333 9.26667 22.8667 9.53333 22.8667 9.93333C22.8667 10.3333 22.6 10.6 22.2667 10.6Z" fill="#E7426A"/>
</svg>
