<svg width="48" height="48" viewBox="0 0 48 48" fill="none" xmlns="http://www.w3.org/2000/svg">
<rect width="48" height="48" rx="24" fill="#F7F7F7"/>
<path d="M16.976 22.456H15.184V27H13.904V22.456H12.12V21.4H16.976V22.456ZM21.4403 24.864C21.4403 24.88 21.4323 24.992 21.4163 25.2H18.1603C18.2189 25.4667 18.3576 25.6773 18.5763 25.832C18.7949 25.9867 19.0669 26.064 19.3923 26.064C19.6163 26.064 19.8136 26.032 19.9843 25.968C20.1603 25.8987 20.3229 25.792 20.4723 25.648L21.1363 26.368C20.7309 26.832 20.1389 27.064 19.3603 27.064C18.8749 27.064 18.4456 26.9707 18.0723 26.784C17.6989 26.592 17.4109 26.328 17.2083 25.992C17.0056 25.656 16.9043 25.2747 16.9043 24.848C16.9043 24.4267 17.0029 24.048 17.2003 23.712C17.4029 23.3707 17.6776 23.1067 18.0243 22.92C18.3763 22.728 18.7683 22.632 19.2003 22.632C19.6216 22.632 20.0029 22.7227 20.3443 22.904C20.6856 23.0853 20.9523 23.3467 21.1443 23.688C21.3416 24.024 21.4403 24.416 21.4403 24.864ZM19.2083 23.576C18.9256 23.576 18.6883 23.656 18.4963 23.816C18.3043 23.976 18.1869 24.1947 18.1443 24.472H20.2643C20.2216 24.2 20.1043 23.984 19.9123 23.824C19.7203 23.6587 19.4856 23.576 19.2083 23.576ZM24.2929 25.368H23.6449V27H22.3969V22.696H23.6449V24.368H24.3169L25.4849 22.696H26.8129L25.3089 24.76L26.9169 27H25.4449L24.2929 25.368ZM29.4449 27.064C28.9862 27.064 28.5729 26.9707 28.2049 26.784C27.8422 26.592 27.5569 26.328 27.3489 25.992C27.1462 25.656 27.0449 25.2747 27.0449 24.848C27.0449 24.4213 27.1462 24.04 27.3489 23.704C27.5569 23.368 27.8422 23.1067 28.2049 22.92C28.5729 22.728 28.9862 22.632 29.4449 22.632C29.8982 22.632 30.2929 22.728 30.6289 22.92C30.9702 23.1067 31.2182 23.376 31.3729 23.728L30.4049 24.248C30.1809 23.8533 29.8582 23.656 29.4369 23.656C29.1115 23.656 28.8422 23.7627 28.6289 23.976C28.4155 24.1893 28.3089 24.48 28.3089 24.848C28.3089 25.216 28.4155 25.5067 28.6289 25.72C28.8422 25.9333 29.1115 26.04 29.4369 26.04C29.8635 26.04 30.1862 25.8427 30.4049 25.448L31.3729 25.976C31.2182 26.3173 30.9702 26.584 30.6289 26.776C30.2929 26.968 29.8982 27.064 29.4449 27.064ZM35.7316 23.72H34.2756V27H33.0356V23.72H31.5796V22.696H35.7316V23.72Z" fill="#4E9DD3"/>
</svg>
