<svg width="48" height="48" viewBox="0 0 48 48" fill="none" xmlns="http://www.w3.org/2000/svg">
<rect width="48" height="48" rx="24" fill="#F7F7F7"/>
<path d="M28.8243 18H16.0543C15.4566 18 14.8834 18.2374 14.4608 18.66C14.0382 19.0827 13.8008 19.6559 13.8008 20.2535V29.0798C13.8008 29.6775 14.0382 30.2507 14.4608 30.6733C14.8834 31.0959 15.4566 31.3333 16.0543 31.3333H28.8243C29.4219 31.3333 29.9951 31.0959 30.4177 30.6733C30.8404 30.2507 31.0778 29.6775 31.0778 29.0798V20.2535C31.0778 19.6559 30.8404 19.0827 30.4177 18.66C29.9951 18.2374 29.4219 18 28.8243 18ZM16.0543 19.5023H28.8243C29.0235 19.5023 29.2145 19.5815 29.3554 19.7224C29.4963 19.8632 29.5754 20.0543 29.5754 20.2535V26.5183L26.7585 23.9268C26.6275 23.8058 26.4576 23.7353 26.2794 23.7281C26.1012 23.7209 25.9262 23.7773 25.7858 23.8873L22.9576 26.1183L19.5341 22.9765C19.3951 22.8472 19.2123 22.7752 19.0224 22.7752C18.8325 22.7752 18.6496 22.8472 18.5106 22.9765L15.3031 26.0225V20.2535C15.3031 20.0543 15.3823 19.8632 15.5231 19.7224C15.664 19.5815 15.8551 19.5023 16.0543 19.5023ZM28.8243 29.831H16.0543C15.8551 29.831 15.664 29.7518 15.5231 29.611C15.3823 29.4701 15.3031 29.279 15.3031 29.0798V28.0883L19.0365 24.5653L23.4947 28.646C23.6424 28.7754 23.8349 28.8419 24.0311 28.8311C24.2272 28.8203 24.4112 28.7331 24.5438 28.5882C24.6764 28.4433 24.747 28.2523 24.7405 28.056C24.7339 27.8597 24.6507 27.6737 24.5088 27.538L24.0806 27.1455L26.2177 25.4648L29.5754 28.5634V29.0798C29.5754 29.279 29.4963 29.4701 29.3554 29.611C29.2145 29.7518 29.0235 29.831 28.8243 29.831Z" fill="#4E9DD3"/>
<path d="M22.7722 24.1953C23.1839 24.1956 23.5865 24.0739 23.9289 23.8454C24.2714 23.6169 24.5384 23.2919 24.6961 22.9116C24.8538 22.5314 24.8952 22.1128 24.815 21.709C24.7347 21.3052 24.5365 20.9343 24.2454 20.6432C23.9543 20.3521 23.5834 20.1539 23.1796 20.0736C22.7758 19.9934 22.3573 20.0348 21.977 20.1925C21.5967 20.3502 21.2717 20.6172 21.0432 20.9597C20.8148 21.3021 20.693 21.7047 20.6934 22.1164C20.6944 22.6674 20.9137 23.1956 21.3033 23.5853C21.693 23.9749 22.2212 24.1943 22.7722 24.1953ZM22.7722 21.538C22.8866 21.538 22.9985 21.5719 23.0936 21.6355C23.1887 21.699 23.2628 21.7893 23.3066 21.895C23.3504 22.0007 23.3618 22.117 23.3395 22.2292C23.3172 22.3414 23.2621 22.4445 23.1812 22.5254C23.1003 22.6063 22.9973 22.6614 22.8851 22.6837C22.7729 22.706 22.6566 22.6945 22.5509 22.6508C22.4452 22.607 22.3549 22.5328 22.2913 22.4377C22.2278 22.3426 22.1938 22.2308 22.1938 22.1164C22.1938 21.963 22.2548 21.8159 22.3632 21.7074C22.4717 21.5989 22.6188 21.538 22.7722 21.538Z" fill="#4E9DD3"/>
<path d="M37.0541 25.6432L39.347 25.6149C39.6004 25.6117 39.8083 25.4038 39.8112 25.1507L39.815 24.845C39.8181 24.5916 39.6153 24.3888 39.3621 24.3921L37.0693 24.4204L37.0978 22.1273C37.1009 21.874 36.8981 21.6712 36.6449 21.6745L36.339 21.678C36.0856 21.6812 35.8777 21.8891 35.8748 22.1423L35.8465 24.4355L33.5537 24.4638C33.3003 24.467 33.0924 24.6749 33.0895 24.9281L33.0857 25.2337C33.0826 25.4871 33.2854 25.6899 33.5386 25.6866L35.8314 25.6583L35.8031 27.9511C35.8 28.2045 36.0028 28.4073 36.256 28.404L36.5617 28.4002C36.815 28.3971 37.0229 28.1892 37.0259 27.936L37.0541 25.6432Z" fill="#4E9DD3"/>
</svg>
